<svg width="300" height="300" viewBox="0 0 300 300" fill="none" xmlns="http://www.w3.org/2000/svg">
<rect width="300" height="300" fill="#00CD80"/>
<rect x="78" y="77" width="67.3538" height="67.3538" rx="10" fill="white"/>
<rect x="99.6985" y="98.6984" width="23.7987" height="23.7987" rx="5" fill="#00CD80"/>
<rect x="155.565" y="77" width="67.3538" height="67.3538" rx="10" fill="white"/>
<ellipse cx="111.677" cy="188.242" rx="33.6769" ry="33.6769" fill="white"/>
<path d="M219.901 188.045C220.338 188.045 220.82 188.253 221.194 188.48C222.143 189.058 223.063 189.951 222.996 191.06C221.936 208.76 207.247 222.787 189.281 222.787C171.333 222.787 156.654 208.788 155.568 191.114C155.498 189.975 156.447 189.061 157.427 188.476C157.807 188.25 158.292 188.045 158.734 188.045H219.901Z" fill="white"/>
</svg>
